<svg width="20" height="20" viewBox="0 0 20 20" fill="none" xmlns="http://www.w3.org/2000/svg">
<path d="M4.21622 8.86487C3.54324 8.86487 3 9.40811 3 10.0811C3 10.7541 3.54324 11.2973 4.21622 11.2973C4.88919 11.2973 5.43243 10.7541 5.43243 10.0811C5.43243 9.40811 4.88919 8.86487 4.21622 8.86487ZM4.21622 4C3.54324 4 3 4.54324 3 5.21622C3 5.88919 3.54324 6.43243 4.21622 6.43243C4.88919 6.43243 5.43243 5.88919 5.43243 5.21622C5.43243 4.54324 4.88919 4 4.21622 4ZM4.21622 13.7297C3.54324 13.7297 3 14.2811 3 14.9459C3 15.6108 3.55135 16.1622 4.21622 16.1622C4.88108 16.1622 5.43243 15.6108 5.43243 14.9459C5.43243 14.2811 4.88919 13.7297 4.21622 13.7297ZM6.64865 15.7568H17V14.1351H6.64865V15.7568ZM6.64865 10.8919H17V9.27027H6.64865V10.8919ZM6.64865 4.40541V6.02703H17V4.40541H6.64865Z" />
</svg>
