<svg width="20" height="20" viewBox="0 0 20 20" fill="none" xmlns="http://www.w3.org/2000/svg">
<path fill-rule="evenodd" clip-rule="evenodd" d="M10 3.75C6.54822 3.75 3.75 6.54822 3.75 10C3.75 13.4518 6.54822 16.25 10 16.25C13.4518 16.25 16.25 13.4518 16.25 10C16.25 6.54822 13.4518 3.75 10 3.75ZM5.25 10C5.25 7.37665 7.37665 5.25 10 5.25C11.041 5.25 12.0039 5.58491 12.7866 6.15286L6.15286 12.7866C5.58491 12.0039 5.25 11.041 5.25 10ZM7.21354 13.8473C7.99625 14.4151 8.95902 14.75 10 14.75C12.6234 14.75 14.75 12.6234 14.75 10C14.75 8.95902 14.4151 7.99625 13.8473 7.21354L7.21354 13.8473Z" />
</svg>
