<svg width="20" height="20" viewBox="0 0 20 20" fill="none" xmlns="http://www.w3.org/2000/svg">
<path fill-rule="evenodd" clip-rule="evenodd" d="M15.0556 3.5H4.94444C4.15 3.5 3.5 4.15 3.5 4.94444V15.0556C3.5 15.85 4.15 16.5 4.94444 16.5H15.0556C15.85 16.5 16.5 15.85 16.5 15.0556V4.94444C16.5 4.15 15.85 3.5 15.0556 3.5ZM15.0556 15.0556H4.94444V10V4.94444H15.0556V15.0556ZM10.619 12.8239L12.1667 10.65L14.3333 13.9H5.66667L8.45238 9.56667L10.619 12.8239ZM12.6 8.7C13.318 8.7 13.9 8.11797 13.9 7.4C13.9 6.68203 13.318 6.1 12.6 6.1C11.882 6.1 11.3 6.68203 11.3 7.4C11.3 8.11797 11.882 8.7 12.6 8.7Z" />
</svg>
