<svg width="20" height="20" viewBox="0 0 20 20" fill="none" xmlns="http://www.w3.org/2000/svg">
  <path fill="none" d="M12.1851 7.22187V10.5196C12.1851 10.5196 12.2953 12.4856 13.9434 12.4856C15.5914 12.4856 17.1429 10.8485 16.6046 7.85846C16.0663 4.86839 13.5993 2.88403 10 2.88403C6.40065 2.88403 3 5.52132 3 10.5196C3 15.5178 7.25114 17.1503 9.71811 17.1503C12.1851 17.1503 14.5356 16.3214 15.4859 15.1793" stroke="#222222" stroke-width="1.5" stroke-linecap="round"/>
  <path fill="none" fill-rule="evenodd" clip-rule="evenodd" d="M9.5625 12.916C11.0122 12.916 12.1875 11.6756 12.1875 10.1455C12.1875 8.6154 11.0122 7.375 9.5625 7.375C8.11275 7.375 6.9375 8.6154 6.9375 10.1455C6.9375 11.6756 8.11275 12.916 9.5625 12.916Z" stroke="#222222" stroke-width="1.5" stroke-linecap="round" stroke-linejoin="round"/>
</svg>
