<svg width="20" height="20" viewBox="0 0 20 20" fill="none" xmlns="http://www.w3.org/2000/svg">
<path fill-rule="evenodd" clip-rule="evenodd" d="M9.40762 4.5049C10.7217 4.44574 12.234 4.92433 13.1298 5.84775L13.6521 6.38606L12.5755 7.43052L12.0532 6.89221C11.518 6.34055 10.4578 5.95914 9.47508 6.00338C8.9972 6.02489 8.60643 6.14531 8.33768 6.33137C8.0886 6.50381 7.91392 6.7505 7.86147 7.13094C7.79214 7.6338 7.90778 7.99502 8.12631 8.30765C8.36442 8.64831 8.7448 8.95847 9.25301 9.28742L9.50849 9.45279H15.4794V10.9528H9.06845L9.06754 10.9542L9.06538 10.9528H4.25V9.45279H7.11922C7.04078 9.36154 6.96635 9.2664 6.89688 9.16701C6.46948 8.55556 6.25279 7.81634 6.37552 6.92608C6.48703 6.11726 6.89958 5.5026 7.48385 5.0981C8.04843 4.70722 8.73711 4.53508 9.40762 4.5049ZM12.3701 11.4244L12.8253 12.0204C13.3799 12.7464 13.4854 13.588 13.2298 14.345C12.9819 15.0795 12.4139 15.687 11.6986 16.0637C10.2282 16.8382 8.12381 16.6715 6.28629 14.8427L5.7547 14.3136L6.81285 13.2505L7.34443 13.7795C8.7754 15.2037 10.1794 15.1685 10.9996 14.7366C11.4296 14.5101 11.7024 14.18 11.8086 13.8653C11.9072 13.5732 11.8801 13.2541 11.6333 12.9309L11.1781 12.3349L12.3701 11.4244Z" />
</svg>
