<svg width="20" height="20" viewBox="0 0 20 20" fill="none" xmlns="http://www.w3.org/2000/svg">
<path fill-rule="evenodd" clip-rule="evenodd" d="M7.75 4.75V9.84783C7.75 10.587 8.04144 11.1412 8.49934 11.5234C8.97064 11.9167 9.66047 12.1598 10.4783 12.1598C11.296 12.1598 11.9859 11.9167 12.4572 11.5234C12.9151 11.1412 13.2065 10.587 13.2065 9.84783V4.75H14.7065V9.84783C14.7065 11.0296 14.2193 12.0064 13.4183 12.675C12.6308 13.3323 11.5815 13.6598 10.4783 13.6598C9.37506 13.6598 8.32576 13.3323 7.53817 12.675C6.7372 12.0064 6.25 11.0296 6.25 9.84783V4.75H7.75ZM6.25 14.75H14.7065V16.25H6.25V14.75Z" />
</svg>
