<svg width="20" height="20" viewBox="0 0 20 20" fill="none" xmlns="http://www.w3.org/2000/svg">
<path d="M14.1666 5.83333H10.8333V7.41667H14.1666C15.5916 7.41667 16.75 8.575 16.75 10C16.75 11.1917 15.9333 12.1917 14.825 12.4833L16.0416 13.7C17.4 13.0083 18.3333 11.625 18.3333 10C18.3333 7.7 16.4666 5.83333 14.1666 5.83333ZM13.3333 9.16667H11.5083L13.175 10.8333H13.3333V9.16667ZM1.66663 3.55833L4.25829 6.15C2.74163 6.76667 1.66663 8.25833 1.66663 10C1.66663 12.3 3.53329 14.1667 5.83329 14.1667H9.16663V12.5833H5.83329C4.40829 12.5833 3.24996 11.425 3.24996 10C3.24996 8.675 4.25829 7.58333 5.54996 7.44167L7.27496 9.16667H6.66663V10.8333H8.94163L10.8333 12.725V14.1667H12.275L15.6166 17.5L16.6666 16.45L2.72496 2.5L1.66663 3.55833Z" />
</svg>
